<?xml version="1.0" encoding="utf-8"?>
<!-- Generator: Adobe Illustrator 19.0.1, SVG Export Plug-In . SVG Version: 6.00 Build 0)  -->
<svg version="1.1" id="Слой_1" xmlns="http://www.w3.org/2000/svg" xmlns:xlink="http://www.w3.org/1999/xlink" x="0px" y="0px"
	 viewBox="-1136.7 2728.8 170.3 169.6" style="enable-background:new -1136.7 2728.8 170.3 169.6;" xml:space="preserve">
<style type="text/css">
	.st0{opacity:0.2;}
	.st1{fill:#FFFFFF;}
	.st2{fill:none;stroke:#E5CAAC;stroke-width:1.5;stroke-miterlimit:10;}
</style>
<path class="st0" d="M-984.4,2768.8c4.4-4.7,9.1-9.2,13.8-13.5c1.9-1.8,2.3-3.1,0.9-5.3c-2.7-4.1-5.1-8.5-7.6-12.7
	c-0.4-0.6-0.8-1.2-1.2-1.8c-4.5,1.5-8.7,3.1-13,4.4c-6.2,1.8-12.5,2.9-19,1.9c-8.1-1.2-14.4-5.3-20-10.5c-1.2-1.1-2.1-1.3-3.7-0.6
	c-11.4,4.6-22.9,4.7-34.4,0.2c-2.1-0.8-3.3-0.7-5,0.8c-6.3,5.9-13.8,10.1-23.1,10.4c-7.2,0.2-14-1.5-20.7-3.9
	c-2.6-0.9-5.1-1.9-7.6-2.8c-0.3,0.2-0.4,0.3-0.5,0.4c-2.1,3.9-4.4,7.6-6.6,11.4c-3.3,5.6-3.3,5.6,1.6,10.2
	c7.6,7,14.7,14.3,20.4,22.7c6.2,9.3,7.8,19.2,5.8,29.8c-2.6,14.1-8.8,26.8-17.3,38.7c-4,5.6-8.6,11-13.1,16.6
	c5,5.8,10.2,11.7,15.5,17.7c1.9-1.1,3.6-2.1,5.4-2.9c12.6-6.2,25.5-6.5,38.5-1c8.6,3.7,15.8,9.2,22,15.7c0.5,0.5,1.1,1,1.7,1.6
	c1.1-1.1,2-2.1,2.9-3c5.3-5.6,11.2-10.6,18.2-14.4c13.9-7.4,27.7-7.2,41.3,0.7c1.7,1,3.3,2.1,5.2,3.2c5.2-6,10.4-11.9,15.6-17.9
	c-1.1-1.2-2-2.1-2.9-3.1c-12-13.5-21.4-28.1-26.2-45.1c-3.7-13.1-3.7-25.7,4.9-37.4C-990.1,2775.7-987.4,2772-984.4,2768.8z"/>
<path class="st1" d="M-1051.6,2898.4l-1.1-1.1c-0.3-0.3-0.6-0.6-0.9-0.8c-0.3-0.3-0.6-0.5-0.8-0.8c-6.7-7-13.7-12-21.5-15.4
	c-12.6-5.3-25.1-5-37.2,1c-1.7,0.7-3.2,1.6-5,2.7l-1.4,0.8l-0.8-0.9c-5.1-5.7-10.5-11.8-15.5-17.7l-0.8-0.9l0.8-1
	c1.2-1.4,2.3-2.9,3.5-4.3c3.4-4.2,6.6-8.1,9.6-12.2c9.1-12.7,14.7-25.2,17-38.1c2-10.7,0.2-20.1-5.6-28.7
	c-6.2-9.1-14-16.8-20.2-22.4c-5.4-5.1-5.5-5.9-1.9-12.1c0.7-1.3,1.5-2.5,2.2-3.8c1.5-2.5,3-5,4.4-7.6l0.1-0.2l0.2-0.2
	c0.2-0.2,0.3-0.3,0.7-0.6l0.6-0.4l0.7,0.3c1.1,0.4,2.1,0.8,3.2,1.2c1.4,0.5,2.9,1.1,4.4,1.6c7.9,2.8,14.1,4,20.2,3.8
	c8-0.3,15.2-3.5,22.1-10c2.1-1.8,3.9-2.1,6.6-1.1c11.1,4.3,22.3,4.3,33.3-0.2c2.1-0.9,3.6-0.7,5.3,0.9c6.4,5.9,12.5,9.1,19.2,10.1
	c5.4,0.8,11.1,0.3,18.4-1.9c2.6-0.8,5.2-1.7,7.9-2.6c1.7-0.6,3.3-1.2,5-1.7l1.1-0.4l1.8,2.8c0.8,1.4,1.6,2.7,2.4,4.1
	c1.7,2.9,3.4,5.9,5.2,8.6c2.1,3.4,0.7,5.5-1.1,7.2c-5.5,5-9.9,9.3-13.7,13.4h0c-3,3.2-5.8,7-8.1,10.3c-7.3,10-8.8,21.5-4.7,36.1
	c4.3,15.2,12.8,29.7,25.9,44.5c0.5,0.5,0.9,1,1.4,1.5c0.5,0.5,0.9,1,1.5,1.6l0.9,1l-0.9,1c-2.6,3-5.2,6-7.8,9
	c-2.6,3-5.2,5.9-7.8,8.9l-0.8,0.9l-1.1-0.6c-1-0.6-2-1.2-2.9-1.8c-0.8-0.5-1.5-1-2.3-1.4c-13-7.6-26.4-7.8-39.8-0.7
	c-6.2,3.4-12,8-17.8,14.1c-0.4,0.4-0.9,0.9-1.3,1.3c-0.5,0.5-1,1.1-1.6,1.7L-1051.6,2898.4z M-1093.6,2873.6c6.3,0,12.6,1.3,18.9,4
	c8.2,3.5,15.6,8.8,22.5,16c0.2,0.2,0.4,0.3,0.6,0.5c0.2-0.2,0.4-0.4,0.6-0.6c0.5-0.5,0.9-0.9,1.3-1.4c6-6.3,12.1-11.1,18.5-14.7
	c14.4-7.7,28.8-7.4,42.8,0.7c0.8,0.5,1.6,1,2.4,1.5c0.6,0.4,1.1,0.7,1.8,1.1c2.3-2.7,4.7-5.3,7-8c2.3-2.6,4.6-5.3,6.9-7.9
	c-0.2-0.2-0.3-0.4-0.5-0.5c-0.5-0.5-1-1.1-1.5-1.6c-13.4-15.1-22.1-30.1-26.5-45.7c-4.4-15.6-2.8-27.9,5.1-38.7
	c2.3-3.4,5.2-7.3,8.3-10.6l0,0c3.9-4.2,8.3-8.5,13.9-13.6c1.6-1.5,1.5-2,0.6-3.4c-1.9-2.8-3.6-5.8-5.3-8.8c-0.8-1.3-1.5-2.7-2.3-4
	l-0.5-0.8c-1.3,0.5-2.6,0.9-3.9,1.4c-2.7,1-5.3,1.9-8,2.7c-7.7,2.2-13.8,2.8-19.7,1.9c-7.4-1.1-14-4.5-20.8-10.9
	c-0.7-0.7-1-0.8-2.1-0.3c-11.8,4.8-23.8,4.8-35.5,0.2c-1.7-0.6-2.2-0.5-3.5,0.5c-7.4,7-15.3,10.5-24,10.8c-6.5,0.2-13.1-1-21.3-4
	c-1.5-0.5-3-1.1-4.4-1.6c-0.7-0.3-1.5-0.5-2.2-0.8c-1.3,2.4-2.7,4.8-4.1,7c-0.7,1.2-1.5,2.5-2.2,3.8c-1.4,2.3-2.2,3.7-2.1,4.5
	c0.1,0.8,1.4,2,3.4,3.9c6.3,5.8,14.3,13.6,20.6,23c6.2,9.3,8.2,19.5,6,30.9c-2.5,13.3-8.2,26.2-17.6,39.3c-3,4.2-6.4,8.4-9.7,12.4
	c-0.9,1.1-1.8,2.2-2.7,3.3c4.5,5.2,9.3,10.7,13.9,15.8c1.5-0.9,3-1.7,4.5-2.4C-1107.6,2875.3-1100.7,2873.6-1093.6,2873.6z"/>
<path class="st2" d="M-1036.3,2839c-9.1-9.7,3.6-40.4,6.3-54.1c-1.3,7.3-8.5,29-11.7,35.7c-8.8,18.2-24.3,9.2-23.7-0.3
	c0.7-11.3,6.1-31.8,8-42.4c-3.7,20.6-10.7,40.6-20.8,59c-0.3,0.5-0.6,1-0.9,1.6c-3.6,6-9.1,13.8-15.5,11.5
	c-7.6-2.7-5.4-17.9,9.6-14.8c3.5,0.7,6.3,3.5,9.2,5.6c7.8,5.6,16.7,10,26.3,10.6c9.6,0.6,18.6-4.2,25.1-11.3
	c23.6-25.7,14.5-79.9-36.9-71.2c-9.5,1.6-24.4,9.7-15.3,21.5"/>
</svg>
