<?xml version="1.0" encoding="utf-8"?>
<!-- Generator: Adobe Illustrator 19.0.1, SVG Export Plug-In . SVG Version: 6.00 Build 0)  -->
<svg version="1.1" id="Слой_1" xmlns="http://www.w3.org/2000/svg" xmlns:xlink="http://www.w3.org/1999/xlink" x="0px" y="0px"
	 viewBox="0 0 225 69" style="enable-background:new 0 0 225 69;" xml:space="preserve">
<style type="text/css">
	.st0{fill:#F14950;stroke:#FEFEFE;stroke-miterlimit:10;}
	.st1{opacity:0.3;}
	.st2{fill:#F47B50;stroke:#FEFEFE;stroke-miterlimit:10;}
	.st3{fill:#FFFFFF;}
	.st4{font-family:'MyriadPro-Regular';}
	.st5{font-size:23.5226px;}
	.st6{opacity:0.11;fill:#1A1A1A;}
	.st7{stroke:#FEFEFE;stroke-miterlimit:10;}
	.st8{fill:#FEFEFE;}
</style>
<g>
	<circle class="st0" cx="34.5" cy="34.5" r="34"/>
	<path class="st1" d="M68.5,33.9L44.7,17L21.1,52l21.8,15.5c14.7-3.7,25.6-17.1,25.6-32.9C68.5,34.3,68.5,34.1,68.5,33.9z"/>
	<circle class="st1" cx="34.5" cy="22.6" r="2.4"/>
	<path class="st2" d="M44.7,17H34.5H24.3l-3.3,5V52h26.8V22L44.7,17z M34.5,25c-1.3,0-2.4-1.1-2.4-2.4c0-1.3,1.1-2.4,2.4-2.4
		c1.3,0,2.4,1.1,2.4,2.4C36.9,24,35.8,25,34.5,25z"/>
	<text transform="matrix(1 0 0 1 28.5587 46.3545)" class="st3 st4 st5">$</text>
</g>
<circle class="st0" cx="190.5" cy="34.5" r="34"/>
<g>
	<circle class="st0" cx="112.5" cy="34.5" r="34"/>
	<path class="st1" d="M89,37.7l30.1,30.1c15.6-3.1,27.4-16.8,27.4-33.4c0-1.1-0.1-2.3-0.2-3.4l-14.7-14.7L89,37.7z"/>
	<polygon class="st2" points="124.3,39.3 129.5,34.5 129.5,31.7 104.3,31.7 104.3,19.7 94,19.7 89,27.5 89,37.7 92.8,39.3 	"/>
	<polygon class="st0" points="95,21.3 90.9,27.5 95,27.5 102.6,27.5 102.6,21.3 	"/>
	<rect x="104.3" y="16.4" class="st2" width="27.3" height="15.3"/>
	<polygon class="st6" points="89,37.7 92.8,39.3 124.3,39.3 129.5,34.5 129.5,31.7 131.6,31.7 131.6,16.4 	"/>
	<g>
		<circle class="st7" cx="97.6" cy="39.3" r="4.8"/>
		<circle class="st7" cx="119.6" cy="39.3" r="4.8"/>
		<circle class="st8" cx="97.6" cy="39.3" r="1.8"/>
		<circle class="st8" cx="119.6" cy="39.3" r="1.8"/>
	</g>
</g>
</svg>
